<svg width="187" height="84" viewBox="0 0 187 84" fill="none" xmlns="http://www.w3.org/2000/svg">
<g clip-path="url(#clip0_6_115)">
<path d="M11.7556 63.1695C14.6252 50.2781 23.0097 26.3404 25.4116 24.195C26.4055 23.3082 35.6329 21.4537 39.0627 21.4537C41.7325 21.4537 41.5571 22.3118 37.2698 30.1926C33.2407 37.5917 33.0751 38.14 34.8095 38.14C36.3636 38.14 37.4306 36.7145 42.322 28.1282C46.1562 21.3965 46.3169 21.201 48.3437 20.6289C50.3655 20.0616 59.437 19.7707 59.437 20.2761C59.437 21.201 56.2703 26.2021 51.1401 33.3725C44.2025 43.0744 41.0748 49.0862 39.0237 56.6666C37.4842 62.3543 35.3211 64.185 28.9632 65.1766C25.8111 65.6677 26.498 60.843 31.3212 48.6286C33.7913 42.364 33.8302 42.1876 32.7925 42.0351C30.6148 41.7204 26.7221 50.1065 24.0621 60.8477C22.4641 67.3172 22.3618 67.4269 15.6191 69.62C12.5205 70.6259 9.93354 71.465 9.86533 71.4841C9.79713 71.4984 9.86046 71.136 10.0066 70.6784C10.1479 70.2207 10.9372 66.8405 11.7556 63.1695Z" fill="white"/>
<path d="M108.01 53.854C111.606 53.2962 113.515 51.3653 113.515 48.2998C113.515 46.0877 113.428 46.0686 106.929 46.6884C97.0581 47.6324 96.683 46.5168 103.621 36.853C106.743 32.5003 109.34 28.1809 111.294 24.0856C114.246 17.8926 114.246 17.8926 118.387 16.3431C123.595 14.3884 125.208 14.3074 125.208 15.9903C125.208 18.1881 121.89 25.8448 117.384 34.064C112.561 42.8601 112.21 44.3714 115.386 42.6694C117.725 41.4203 124.131 29.4109 127.473 20.0236C130.241 12.243 130.489 11.9427 135.946 9.80208C141.763 7.51843 142.747 7.5375 142.747 9.94033C142.747 15.5183 131.629 48.2998 128.584 51.6943C126.548 53.9636 124.219 54.5882 113.413 55.7562C108.453 56.295 103.82 56.7336 103.109 56.7336C101.823 56.7336 101.823 56.7336 103.362 55.5369C104.371 54.7503 105.969 54.1686 108.01 53.854Z" fill="white"/>
<path d="M40.2227 64.2137C41.124 53.7347 44.6318 45.4964 52.8458 34.5645C60.7676 24.0235 59.6957 24.5908 72.124 24.3858C86.1404 24.157 86.2671 24.6051 75.5294 36.4715C67.6223 45.2104 65.4787 49.0959 64.9671 55.6131C64.5969 60.2948 64.8697 60.7811 68.0998 61.2674C70.3993 61.6106 70.3993 61.6106 63.3058 63.532C59.4083 64.5903 55.9005 65.3532 55.5108 65.2292C54.0395 64.7477 54.3318 56.2043 55.998 51.0124C56.8018 48.5238 57.4644 46.4309 57.4741 46.3641C57.479 46.2974 57.0552 46.2449 56.529 46.2449C54.0833 46.2449 51.8763 52.6286 51.3502 61.2006C50.9507 67.7894 51.5304 67.1648 43.3115 69.8585C39.7404 71.0313 36.5396 71.9895 36.1937 71.9895C35.8477 71.9895 36.5396 71.1171 37.7283 70.0539C39.8622 68.1422 39.8914 68.0706 40.2227 64.2137ZM71.476 26.6981C69.7416 26.6981 56.5923 42.2211 57.2744 43.4655C57.3913 43.6848 57.6544 43.8564 57.8542 43.8469C58.0539 43.8373 58.5557 43.5703 58.9601 43.2509C60.2609 42.2354 72.5917 27.704 72.5917 27.1891C72.5917 26.9222 72.0899 26.6981 71.476 26.6981Z" fill="white"/>
<path d="M137.48 37.7063C142.074 24.4859 141.266 25.5491 147.375 24.6433C154.683 23.5563 154.941 24.0807 150.269 30.5884C140.622 44.028 140.618 51.4892 150.259 51.4892C161.26 51.4892 165.737 44.2187 163.233 30.4263C162 23.6516 161.689 24.1522 167.788 23.151C174.248 22.0926 174.039 21.6683 172.022 31.6134C166.97 56.5046 167.428 55.9754 149.217 58.1828C142.844 58.9551 137.358 59.5892 137.022 59.5892C136.686 59.594 135.741 59.1601 134.917 58.6309C131.546 56.4713 131.868 53.8443 137.48 37.7063Z" fill="white"/>
<path d="M85.3949 53.1578C80.6302 53.1578 80.6302 53.1578 80.7325 51.7705C80.9322 49.0911 83.5436 45.0149 90.0963 37.1771C96.9657 28.9531 98.9339 25.6826 101.419 18.3549C102.554 15.0177 102.554 15.0177 108.887 13.0248C116.867 10.5171 117.91 10.4456 114.85 12.6196C112.712 14.1404 112.419 14.6076 111.026 18.6934C108.819 25.182 106.154 29.8923 100.201 37.8159C94.6223 45.2437 91.592 50.3164 91.592 52.2234C91.592 52.8479 91.3727 53.4773 91.1048 53.6155C90.8368 53.7585 90.5153 53.7109 90.3886 53.5154C90.2668 53.3199 88.0209 53.1578 85.3949 53.1578Z" fill="white"/>
<path d="M77.9405 35.8663C86.5638 26.2168 89.9157 20.0667 87.3336 18.6507C86.101 17.9785 86.403 17.8736 92.4491 16.9058C99.411 15.7902 99.4062 15.7855 97.5061 21.3301C95.7815 26.3694 92.6927 31.0415 86.71 37.6636C82.0622 42.8078 78.9003 47.4943 77.7067 51.0079C76.9515 53.2344 76.7421 53.4441 74.8615 53.8684C73.7458 54.1211 71.573 54.3309 70.0334 54.3404C67.2321 54.35 67.2321 54.35 67.4026 52.4382C67.7436 48.6337 70.7301 43.9425 77.9405 35.8663Z" fill="white"/>
<path d="M71.4753 26.6982C72.0891 26.6982 72.5909 26.9223 72.5909 27.1893C72.5909 27.7042 60.2601 42.2356 58.9593 43.2511C58.555 43.5705 58.0532 43.8375 57.8534 43.847C57.6537 43.8566 57.3906 43.6849 57.2737 43.4656C56.5916 42.2213 69.7409 26.6982 71.4753 26.6982Z" fill="black"/>
<path d="M155.141 13.5252C156.919 14.6647 157.236 16.4525 155.964 18.1354C155.394 18.8935 154.488 19.6276 153.952 19.7659C153.416 19.9089 152.549 19.7373 152.023 19.3845C148.573 17.0866 151.657 11.2893 155.141 13.5252Z" fill="white"/>
<path d="M167.335 12.3955C170.356 12.3955 171.277 17.1726 168.534 18.6124C168.051 18.865 167.204 19.07 166.653 19.07C166.098 19.07 165.318 18.6648 164.914 18.169C163.189 16.0331 164.714 12.3955 167.335 12.3955Z" fill="white"/>
</g>
<defs>
<clipPath id="clip0_6_115">
<rect width="186.107" height="83.9084" fill="white"/>
</clipPath>
</defs>
</svg>
